<svg width="46" height="48" viewBox="0 0 46 48" fill="none" xmlns="http://www.w3.org/2000/svg">
<path fill-rule="evenodd" clip-rule="evenodd" d="M3.09931 0.575995C3.21808 0.35324 3.46709 0.121825 3.66491 0.050416C3.74716 0.0207731 9.67547 -0.00187567 16.8389 0.000122725C29.3865 0.00371983 29.8704 0.00831715 30.0551 0.126889C30.1605 0.194567 30.3057 0.362833 30.3778 0.500856C30.5052 0.744593 30.509 1.00865 30.5104 9.83316C30.511 13.4768 30.5115 16.6572 30.5117 18.1289L30.5119 18.9979C30.5119 19.0638 31.7332 19.0811 36.3912 19.0811C42.2416 19.0811 42.2716 19.0818 42.502 19.2208C42.5351 19.2407 42.5656 19.2536 42.5938 19.2656C42.6155 19.2748 42.6359 19.2834 42.6549 19.2941C42.9362 19.4533 42.9362 20.086 42.9365 30.0622C42.9365 30.9391 42.9365 31.8883 42.9368 32.9157C42.9383 40.163 42.9621 46.1283 42.9897 46.1716C43.0246 46.2264 43.4219 46.257 44.2924 46.2715L45.5448 46.2926L45.782 46.559C46.0006 46.8045 46.017 46.8529 45.9904 47.1742C45.9581 47.5649 45.8213 47.7595 45.4799 47.9005C45.1677 48.0295 0.740887 48.0349 0.479864 47.906C0.230923 47.7831 0 47.4101 0 47.1308C0 46.8411 0.275698 46.4136 0.521226 46.3224C0.614878 46.2877 1.21167 46.2593 1.84744 46.2593H3.00341V23.5076C3.00341 4.09743 3.01747 0.729471 3.09931 0.575995ZM10.6826 2.50871C11.0205 2.91645 11.4218 3.38394 11.5744 3.54748L11.8518 3.84483L11.6535 4.45194C11.5444 4.78588 11.403 5.20894 11.3394 5.39212L11.2235 5.72519L9.878 5.74324L8.5324 5.76129V9.49023V13.2192H11.6082H14.6841L14.6472 13.5023C14.6269 13.6579 14.5781 14.0702 14.5388 14.4182C14.4994 14.7663 14.4518 15.1456 14.4331 15.2611C14.3974 15.4805 14.6447 15.837 15.9088 17.389C16.1504 17.6856 16.4402 18.0418 16.5529 18.1804C16.6655 18.3191 16.797 18.5035 16.8451 18.5902C16.9231 18.7309 17.1782 18.8272 17.1217 18.6947C17.1092 18.6653 16.9961 18.3881 16.8703 18.0785C16.63 17.487 16.5801 17.356 16.0847 16.0169L15.7768 15.1843L15.8772 14.7846C16.0222 14.2077 16.3757 12.8776 16.5585 12.2208L16.7159 11.6553L15.792 10.7819L14.868 9.90843L14.8551 7.85008L14.8421 5.7918L14.2128 5.77262C13.5828 5.7535 13.5241 5.72585 13.6508 5.50776C13.9996 4.90678 14.5983 3.59524 14.5514 3.53468C13.8523 2.63308 13.2423 1.82299 13.2423 1.79615C13.2423 1.77723 16.7135 1.76171 20.956 1.76171H28.6697L28.6522 7.26428L28.6347 12.7669L28.2252 12.9199C27.9999 13.0041 27.5085 13.1835 27.133 13.3187C25.2988 13.9792 25.2173 14.0094 24.8642 14.1609C24.705 14.2292 24.5433 14.285 24.5049 14.285C24.4664 14.285 24.3816 14.315 24.3164 14.3516C24.2512 14.3882 24.1113 14.4482 24.0056 14.4848C23.8683 14.5324 23.8233 14.5849 23.8482 14.6681C23.8674 14.7322 23.9042 15.224 23.9299 15.7609L23.9767 16.7373L23.7665 16.8434C23.5859 16.9345 23.2189 16.9495 21.1638 16.9495H18.7713V19.0749V21.2004L18.0716 21.5453C17.6868 21.7351 17.3135 21.9456 17.2421 22.0132C17.1344 22.115 17.103 22.2821 17.0584 22.99C16.9997 23.9216 16.8872 25.1499 16.8207 25.5847C16.7605 25.979 16.8985 26.0211 17.0584 25.6572C17.197 25.3417 17.6375 24.0853 17.8891 23.2882C18.041 22.8069 18.049 22.7966 18.3903 22.6505L18.7372 22.502L18.7713 23.4697L18.8054 24.4374L21.8429 24.4451C23.5136 24.4493 24.9161 24.4268 24.9595 24.3951C25.0323 24.342 25.0439 23.6481 25.0515 18.926C25.0517 18.7358 25.1132 18.6725 25.6695 18.2893C26.1354 17.9683 26.276 17.8374 26.2416 17.7564C26.2166 17.6973 26.181 17.589 26.1626 17.5157C26.1442 17.4424 26.0276 17.0528 25.9035 16.6497C25.8936 16.6177 25.884 16.5866 25.8747 16.5564C25.6447 15.8103 25.579 15.5972 25.6592 15.4761C25.6912 15.4277 25.7466 15.394 25.8242 15.3468C25.8321 15.342 25.8402 15.3371 25.8486 15.3319C25.9919 15.2443 26.3856 15.0284 26.7235 14.8523C27.0614 14.6762 27.3993 14.4953 27.4743 14.4502C27.7651 14.2758 28.548 13.8853 28.6069 13.8853C28.6439 13.8853 28.6689 20.4187 28.6689 30.0723V46.2593H24.6416H20.6143V42.7954V39.3315H16.7924H12.9705L12.9528 42.7787L12.9351 46.226L11.0676 46.24L9.20011 46.254L9.23493 46.1067C9.28407 45.8991 9.98148 44.2658 10.415 43.3432C10.5058 43.1498 10.5802 42.9341 10.5802 42.8639C10.5802 42.7552 9.4294 41.6885 8.48974 40.9261C8.36121 40.8218 8.26251 40.6663 8.23603 40.5264L8.19268 40.2974L8.9939 39.7789C9.43465 39.4937 9.91097 39.164 10.0525 39.0461L10.3097 38.8319L10.3255 37.7827C10.3344 37.1896 10.3148 36.7421 10.2804 36.7533C10.2469 36.7643 10.0999 37.0116 9.9537 37.3029C9.92673 37.3567 9.90108 37.408 9.87659 37.4569C9.57775 38.0542 9.4532 38.3031 9.25378 38.4632C9.11127 38.5777 8.93053 38.6468 8.62062 38.7653C8.58511 38.7789 8.5479 38.7931 8.50885 38.8081L8.10988 38.9616L7.62469 38.716C7.35787 38.5809 7.12626 38.4833 7.11002 38.4992C7.09377 38.515 7.0752 38.5813 7.06872 38.6466C6.9752 39.5862 6.84968 40.1481 6.64374 40.5493C6.53364 40.7637 6.49978 40.9018 6.54005 40.9721C6.57295 41.0295 7.01165 41.4857 7.51493 41.9859C8.01821 42.4861 8.47261 42.9483 8.52469 43.0131C8.60961 43.1186 8.50742 43.2931 7.53964 44.6951L6.45992 46.2593H5.65316H4.8464V24.0105V1.76171L7.45732 1.76457L10.0682 1.76737L10.6826 2.50871ZM18.7713 13.2192V9.48883V5.7585H21.9144H25.0576L25.0489 9.33895C25.0441 11.3082 25.024 12.9868 25.0041 13.0693L24.9681 13.2192H21.8697H18.7713ZM8.5324 24.4102V20.6792V16.9482L11.6854 16.9655L14.8385 16.9828L14.8424 20.7015L14.8464 24.4202L11.8771 24.421C10.244 24.4214 8.82339 24.4192 8.72011 24.416L8.5324 24.4102ZM8.5324 28.1418L11.6211 28.1245C13.32 28.115 14.7443 28.1302 14.7865 28.1583C14.8418 28.1951 14.8608 29.2339 14.8548 31.8886L14.8464 35.5679L11.6894 35.5852L8.5324 35.6025V31.8722V28.1418ZM18.8054 35.5679L18.7878 31.8535L18.7701 28.1392L21.8936 28.1565L25.017 28.1738V31.8708V35.5679H21.9112H18.8054ZM41.1262 46.226V33.5362V20.8464L35.9044 20.8305C33.0323 20.8218 30.6439 20.8386 30.5967 20.8681C30.5282 20.9107 30.5108 23.4827 30.5108 33.5737V46.226H35.8185H41.1262ZM33.2055 23.6066C33.1643 23.6469 33.1526 24.9064 33.174 26.988L33.2081 30.3054H35.802H38.3958V26.9415V23.5775L35.8335 23.5601C34.2601 23.5493 33.2458 23.5673 33.2055 23.6066ZM33.1691 33.8295C33.153 33.8453 33.1481 35.3597 33.1581 37.1951L33.1765 40.5322L35.7861 40.5147L38.3958 40.4972V37.1666V33.8359L35.7971 33.8185C34.3678 33.8089 33.1852 33.8139 33.1691 33.8295Z" fill="black"/>
</svg>
