<svg width="48" height="48" viewBox="0 0 48 48" fill="none" xmlns="http://www.w3.org/2000/svg">
<path d="M30.7017 0.634899C30.0319 -0.04989 30.0404 -0.111374 30.7739 0.125133C33.9541 1.15028 36.3593 2.45542 39.1216 4.65541C41.2051 6.31482 43.6826 9.25429 44.9126 11.5245C45.6516 12.8887 46.4818 14.6578 46.4829 14.8712C46.4829 14.9331 46.5191 15.0439 46.563 15.1173C46.6937 15.3355 46.9434 16.1151 47.1851 17.0568C47.6995 19.0614 47.7315 19.2237 47.9077 20.7443C48.032 21.8167 48.0312 25.308 47.9067 26.2765C47.8498 26.7198 47.789 27.2034 47.771 27.3517C47.7386 27.6189 47.5531 28.5276 47.4263 29.0421C47.3899 29.19 47.3239 29.4672 47.2798 29.6574C47.1282 30.3109 46.9504 30.9239 46.8735 31.0578C46.8312 31.1311 46.7964 31.2536 46.7964 31.3292C46.7962 31.4054 46.634 31.8464 46.436 32.3097C46.2382 32.7725 46.0564 33.2171 46.0317 33.299C46.0077 33.3796 45.7593 33.8812 45.48 34.4132C45.2009 34.9448 44.9094 35.5036 44.8316 35.6554C44.754 35.8066 44.6351 35.9757 44.5679 36.0304C44.5009 36.085 44.446 36.1754 44.4458 36.2316C44.4458 36.3376 43.6641 37.4814 43.1401 38.1417C42.153 39.3859 41.678 39.9296 40.895 40.7101C39.6555 41.9457 37.8683 43.4037 36.7896 44.0597C34.3653 45.5339 33.1619 46.1176 31.4624 46.6447C31.1947 46.7276 30.9549 46.8295 30.9292 46.8703C30.9034 46.9109 30.7764 46.9444 30.647 46.9445C30.5175 46.9445 30.3339 46.9845 30.2398 47.0343C30.1457 47.0842 29.8751 47.1731 29.6382 47.2316C29.4014 47.2901 29.0841 47.3708 28.9331 47.4113C28.5088 47.5248 26.9228 47.8015 26.2691 47.8761C25.2024 47.9978 21.8186 48.0452 21.0982 47.9484C18.9185 47.6551 18.6917 47.614 17.1021 47.216C16.3408 47.0253 14.6585 46.4569 13.9292 46.1447C13.2614 45.8588 11.6159 45.0415 11.3296 44.8536C11.1501 44.7358 10.9784 44.6394 10.9478 44.6388C10.9178 44.6387 10.6706 44.4832 10.3989 44.2931C10.1273 44.103 9.88669 43.9474 9.86476 43.9474C9.80695 43.944 8.69097 43.1585 8.24855 42.8097C8.05446 42.6566 7.47846 42.1707 6.96827 41.7296C5.76968 40.6932 3.5185 38.2649 3.64308 38.1427C3.66684 38.1218 3.99761 38.2305 4.37941 38.3849C6.06095 39.0648 6.60344 39.2431 8.36573 39.6906C10.8315 40.3167 13.7815 40.4993 16.3189 40.1837C17.5211 40.0342 18.9701 39.76 19.7271 39.5382C21.6238 38.9824 22.2327 38.7639 23.4058 38.2228C24.0804 37.9116 24.3958 37.7473 25.5249 37.1124C25.7513 36.9851 26.6118 36.4332 27.2066 36.0343C28.0886 35.4427 28.9451 34.7213 30.0015 33.6808C32.3437 31.3738 33.601 29.6152 34.9907 26.6994C35.5404 25.5462 36.3212 23.3067 36.5454 22.2423C37.3401 18.4693 37.3668 15.6831 36.6431 11.9474C36.4189 10.7902 35.7909 8.70033 35.4429 7.95228C35.3642 7.78326 35.2721 7.55791 35.2388 7.45228C35.1226 7.08561 33.9429 4.82165 33.647 4.39759C33.5659 4.28148 33.2932 3.87529 33.0415 3.49525C32.3193 2.40517 31.7412 1.69797 30.7017 0.634899ZM16.0835 20.7199C16.0835 20.4753 16.2228 20.5917 16.2739 20.879C16.3564 21.3428 16.7752 22.5494 17.0757 23.1886C17.7832 24.6934 18.9532 25.8237 20.7066 26.6974C21.1397 26.9131 22.5213 27.3514 22.7681 27.3517C22.867 27.3517 23.0107 27.3969 23.0864 27.4513C23.2055 27.5369 23.1218 27.5733 22.4546 27.7296C21.6659 27.9145 20.7055 28.2535 20.3296 28.4796C19.0039 29.2768 18.1209 30.0912 17.4702 31.1163C16.8158 32.1476 16.5035 32.9244 16.314 33.9913C16.2638 34.2743 16.2008 34.4841 16.1743 34.4581C16.1474 34.43 16.0335 34.0391 15.9204 33.588C15.2541 30.931 13.7876 29.2342 11.187 28.1115C10.9251 27.9984 10.1162 27.7607 9.63527 27.6554C9.38578 27.6008 9.16702 27.5328 9.14894 27.504C9.13138 27.4752 9.31797 27.4093 9.56398 27.3566C10.2153 27.217 11.1641 26.9092 11.7622 26.6437C13.6612 25.8007 15.1887 24.0253 15.7407 22.0206C15.8466 21.636 15.9669 21.2153 16.0083 21.0851C16.0495 20.9554 16.0835 20.7908 16.0835 20.7199ZM10.4165 3.43177C10.5134 3.33676 10.5991 3.37974 10.5991 3.52357C10.5991 3.60222 10.6723 3.95639 10.7612 4.31068C11.1545 5.87748 11.8053 7.3583 12.6567 8.62025C13.2326 9.47354 14.59 10.8309 15.4966 11.4601C16.2246 11.9654 17.595 12.6898 18.1597 12.8683C18.3751 12.9364 18.6223 13.0228 18.7085 13.0607C18.7948 13.0985 19.0762 13.188 19.3345 13.2589C19.5929 13.33 19.961 13.4353 20.1519 13.4933C20.3427 13.5513 20.5899 13.6001 20.7007 13.6007C20.8114 13.6015 20.9536 13.6337 21.0171 13.673C21.1626 13.7632 21.1467 13.7681 20.1577 13.9406C18.507 14.2285 16.8547 14.9448 15.1431 16.1154C14.444 16.5936 13.3132 17.7512 12.7212 18.5939C11.8069 19.8953 11.0067 21.7835 10.7114 23.337C10.6372 23.7274 10.5501 24.0471 10.5181 24.048C10.486 24.0479 10.436 23.9183 10.4067 23.7599C10.3097 23.2337 9.82095 21.6372 9.55421 20.9747C8.78366 19.0613 7.77034 17.6903 6.07667 16.2716C5.77289 16.0172 4.44501 15.1359 4.36573 15.1359C4.33412 15.1358 4.05753 15.0168 3.75148 14.8712C2.76894 14.4042 1.83848 14.1093 0.438 13.8224C-0.0507714 13.7222 -0.15465 13.5989 0.249523 13.5988C0.369779 13.5988 0.570843 13.5686 0.695812 13.5314C0.820698 13.494 1.08198 13.4193 1.27589 13.3654C4.58448 12.4461 6.74839 10.9641 8.45265 8.45131C8.97156 7.6862 9.81593 5.98157 9.81593 5.69838C9.81604 5.62359 9.84683 5.52956 9.88527 5.48939C9.96342 5.40776 10.3638 3.84824 10.3638 3.62513C10.3639 3.54686 10.3878 3.45985 10.4165 3.43177Z" fill="black"/>
</svg>
