<svg width="38" height="48" viewBox="0 0 38 48" fill="none" xmlns="http://www.w3.org/2000/svg">
<path d="M19.0343 6.06595C19.5158 4.29782 19.3432 2.21069 18.5944 0.74674C18.3843 0.336044 18.254 0 18.3046 0C18.3553 0 18.9658 0.360445 19.6613 0.801002C21.1535 1.7464 23.2299 3.65971 24.0681 4.86183C24.9324 6.1016 25.5221 7.31486 25.8767 8.58383C26.1831 9.67987 26.2027 9.88856 26.2045 12.0891C26.2061 14.0755 26.1558 14.7655 25.8712 16.6573C25.4815 19.2472 25.4921 20.3754 25.9167 21.4484C26.502 22.928 28.0928 23.6035 29.1436 22.8188C29.5768 22.4951 29.7402 22.1264 30.1823 20.4742C30.6455 18.7435 31.0864 17.8436 31.984 16.7965C32.9657 15.6512 34.576 14.6062 35.813 14.3114L36.1239 14.2373L35.6563 15.1688C35.1194 16.238 34.8923 17.0238 34.7117 18.437C34.4597 20.4073 34.7785 21.8817 36.2237 25.4293C37.613 28.8395 38 30.3762 38 32.4817C38 34.9463 37.2045 37.4415 35.6562 39.8328C33.4114 43.2997 29.581 46.0395 24.9839 47.4663C24.1374 47.729 23.4202 47.9208 23.3903 47.8924C23.3604 47.864 23.8061 47.5537 24.3808 47.2028C25.8227 46.3227 27.2159 44.9143 27.8849 43.6607C29.1835 41.2273 29.264 38.9747 28.135 36.6674C27.6338 35.6434 27.4397 35.4952 27.4372 36.1346C27.432 37.449 26.2908 39.3082 25.2314 39.7286C24.6788 39.9478 24.5399 39.9318 24.2013 39.6103C23.9253 39.3483 23.9127 39.2852 23.9849 38.5239C24.1604 36.675 23.3761 34.5734 21.83 32.7487C21.3928 32.2327 20.7632 31.4913 20.4308 31.101C19.6053 30.132 18.9056 28.7739 18.6773 27.6981C18.507 26.8947 18.5067 26.7422 18.6751 25.9711C18.7767 25.5059 18.898 25.0023 18.9446 24.852C19.0198 24.6096 18.9604 24.6339 18.418 25.0681C17.7078 25.6367 16.6783 26.8855 16.2543 27.6928C15.4021 29.3149 15.305 31.0019 15.9307 33.3147C16.5522 35.6123 16.5389 36.6986 15.8775 37.64C15.3884 38.3363 14.8466 38.6072 13.9429 38.6072C13.2655 38.6072 13.1046 38.5652 12.7235 38.2893C12.4822 38.1145 12.1296 37.7684 11.9404 37.5201C11.5789 37.0465 10.8955 35.2003 10.8882 34.6783L10.884 34.3732L10.5947 34.7075C10.4357 34.8913 10.1429 35.4112 9.94425 35.8629C8.87156 38.3015 8.97741 41.0604 10.2346 43.4303C11.1397 45.1367 12.3891 46.2876 14.635 47.4837C15.7513 48.0782 15.7449 48.0967 14.5085 47.8528C12.0985 47.3774 10.0986 46.5931 8.19341 45.3763C5.35333 43.5623 3.562 41.6699 1.944 38.7743C0.484531 36.1623 -0.107023 33.5354 0.0157237 30.2121C0.120868 27.3691 0.756663 24.9416 2.00854 22.6031C2.82599 21.0762 4.35786 19.1261 5.47467 18.191C6.016 17.7377 6.0931 17.7375 5.9504 18.1894C5.88762 18.3885 5.80548 19.078 5.76804 19.7214C5.68144 21.2107 5.91825 22.4794 6.48798 23.5776C7.22059 24.9895 8.23964 25.6172 8.98938 25.1185C9.48401 24.7896 9.59279 24.3914 9.70815 22.488C9.86715 19.8648 10.2055 18.4887 11.1321 16.6957C11.9361 15.1396 12.5289 14.4002 14.6464 12.312C17.206 9.78784 18.5366 7.89369 19.0343 6.06595Z" fill="black"/>
</svg>
