<svg width="48" height="39" viewBox="0 0 48 39" fill="none" xmlns="http://www.w3.org/2000/svg">
<path d="M20.6296 8.5634C20.9776 7.63237 22.8979 2.80985 23.9015 0.346196C23.9791 0.155784 24.0726 0 24.1093 0C24.2016 0.000251868 24.608 0.928642 25.7083 3.65197C27.2794 7.54031 27.7776 8.68933 27.8925 8.68933C27.9919 8.68933 30.1242 7.21414 31.7193 6.04182C35.59 3.19697 39.0733 0.755482 39.2611 0.755482C39.3126 0.755482 39.3169 0.882928 39.2706 1.03883C39.1572 1.42067 37.8528 6.5414 36.9238 10.2522C36.3471 12.5555 36.2068 13.2862 36.327 13.3606C36.4135 13.4141 38.4389 13.4682 40.8278 13.4808C43.2169 13.4932 45.8078 13.5396 46.5856 13.5836L48 13.6637L47.0257 14.4974C46.4898 14.9558 45.118 16.1388 43.9771 17.1263C40.8094 19.8676 40.5931 20.0539 39.514 20.968C38.9609 21.4367 38.5083 21.8672 38.5083 21.9249C38.5083 21.9824 39.2754 22.6125 40.2132 23.3248C41.1508 24.0372 42.3671 24.973 42.9162 25.4045C43.4651 25.8358 44.6214 26.7333 45.4857 27.3988C47.0591 28.6101 47.294 28.8388 46.9648 28.8388C46.868 28.8388 44.756 29.0981 42.2714 29.415C39.7867 29.7319 37.3862 30.03 36.9368 30.0775C36.3074 30.144 36.1227 30.209 36.1333 30.3605C36.1408 30.4685 36.785 32.439 37.5647 34.7392C38.3445 37.0394 38.949 38.9547 38.9082 38.9957C38.8675 39.0366 38.2232 38.7832 37.4768 38.4327C34.5981 37.0813 29.3187 34.6648 29.077 34.5881C28.7942 34.4982 28.8875 34.4232 26.4886 36.6688C25.6169 37.4847 24.8674 38.1159 24.8228 38.0712C24.7783 38.0266 24.7418 37.2988 24.7418 36.4539V34.9179L25.339 34.8369C26.3529 34.6995 28.0451 34.2382 28.6392 33.9373C28.9503 33.7797 29.389 33.4741 29.6139 33.2582C30.0748 32.8159 29.9352 32.7926 31.6565 33.5991C32.1059 33.8098 32.778 34.102 33.15 34.2486C33.522 34.3952 34.1667 34.6842 34.5826 34.891C35.386 35.2902 35.5206 35.2965 35.3288 34.926C35.0047 34.3003 33.1498 28.5536 33.2446 28.4689C33.3045 28.4153 34.5701 28.2171 36.0567 28.0283C38.4954 27.7188 39.5568 27.5735 40.8074 27.3787L41.2208 27.3144L39.9274 26.335C39.2161 25.7964 37.7314 24.6622 36.6284 23.8149C35.5253 22.9675 34.5352 22.2203 34.4282 22.1546C34.1845 22.0049 34.627 21.5851 38.2209 18.5564C39.6532 17.3495 40.8562 16.3114 40.8943 16.2497C40.9894 16.0956 39.1952 16.0355 35.6481 16.0734C34.0059 16.091 32.6622 16.0755 32.6622 16.039C32.6622 15.8513 34.6704 8.27387 34.9248 7.50126C34.9918 7.29801 35.0268 7.11201 35.0027 7.08783C34.9786 7.06365 34.3148 7.50668 33.5277 8.07238C29.5127 10.9575 27.0903 12.6032 26.9967 12.5092C26.9394 12.4515 26.5605 11.6393 26.1547 10.7043C24.5571 7.02435 24.0462 5.92508 23.9474 5.95568C23.8333 5.99094 23.4387 6.88633 22.3955 9.4773C22.0118 10.4301 21.6492 11.2398 21.5896 11.2767C21.436 11.3717 19.4843 10.9898 18.6871 10.7086C18.3185 10.5785 17.998 10.4912 17.9747 10.5145C17.9515 10.5378 17.9936 10.6713 18.0684 10.8112C18.2978 11.2406 18.2227 11.5082 17.7709 11.8692C17.5327 12.0596 17.2896 12.2155 17.2308 12.2155C17.172 12.2155 16.8777 11.6062 16.5767 10.8617C16.2757 10.1172 15.9042 9.22455 15.7512 8.87823C15.1813 7.58804 15.1419 7.6228 16.5237 8.19895C17.198 8.48003 18.2854 8.96072 18.94 9.26724C19.5948 9.57364 20.142 9.8099 20.1564 9.79214C20.1707 9.77426 20.3837 9.2214 20.6296 8.5634Z" fill="black"/>
<path fill-rule="evenodd" clip-rule="evenodd" d="M12.2397 12.5933C12.3393 11.6582 12.4235 10.8365 12.427 10.7672C12.4307 10.698 13.0106 11.2447 13.7159 11.982C14.9767 13.3 15.016 13.3285 16.0371 13.6615L17.0757 14.0002L17.9229 13.3765C19.0811 12.5239 19.2881 12.4313 20.0386 12.4313C21.5316 12.4313 23.5221 14.0527 24.4914 16.0586C24.666 16.4199 24.8984 16.6907 25.1031 16.7714C25.3004 16.8491 26.0532 16.8761 26.9734 16.8385C27.8553 16.8026 28.5134 16.8244 28.5134 16.8898C28.5134 16.9525 28.0891 17.4972 27.5705 18.1003C27.0519 18.7034 26.6276 19.2422 26.6276 19.2978C26.6276 19.3533 27.2512 20.2715 28.0132 21.3383C29.8672 23.9334 29.9524 24.1382 29.848 25.7469C29.6754 28.4037 29.2905 30.9472 28.9528 31.6621C28.5667 32.4796 28.2767 32.6864 27.1644 32.9371C25.3376 33.349 24.1168 33.6589 22.6874 34.0738C21.8686 34.3114 20.9187 34.5059 20.5765 34.5059C19.9238 34.5059 19.1748 34.2035 18.8162 33.7951C18.432 33.3577 18.0786 32.5024 18.0786 32.0096V31.5183L17.3349 31.3363L16.5913 31.1544L16.0973 31.7281C15.1714 32.8038 13.6209 33.2519 12.3104 32.8226C11.4849 32.5521 11.4675 32.5542 10.9057 33.0001C9.78363 33.8903 8.19879 33.992 6.9803 33.2523C6.25364 32.8112 5.84127 32.273 4.69847 30.2741L3.97105 29.0018L3.32445 28.8496C2.96879 28.766 2.08874 28.5879 1.36886 28.4541C0.648985 28.3202 0.0344666 28.185 0.00303629 28.1536C-0.0492637 28.1012 0.572927 27.4991 1.95938 26.2604L2.49809 25.779L2.41788 24.5699C2.36055 23.7046 2.38973 23.1388 2.52073 22.5804C2.62143 22.1512 2.65864 21.7545 2.60358 21.6988C2.54838 21.6432 2.32674 21.1726 2.111 20.6531C1.46718 19.1028 1.35756 18.7641 1.49924 18.7641C1.65954 18.7641 3.47482 19.3818 3.77605 19.5388C3.89599 19.6014 4.2592 19.7022 4.58318 19.7627C5.47618 19.9298 5.92224 19.6649 6.40652 18.6796C6.78645 17.9065 6.79235 17.866 6.70271 16.6587C6.65242 15.9812 6.5692 15.1577 6.51765 14.8286C6.46623 14.4996 6.45931 14.2304 6.50231 14.2304C6.54531 14.2304 6.97528 14.512 7.4578 14.8563C7.94044 15.2005 8.61543 15.6822 8.95777 15.9268C9.45626 16.2827 9.6945 16.3703 10.1521 16.3663L10.7239 16.3612L11.3914 15.3273L12.0587 14.2934L12.2397 12.5933ZM20.846 14.3571C22.4121 15.1574 22.7914 15.943 24.0373 20.9679C25.0725 25.1428 25.1637 25.8498 24.7536 26.5233C24.4949 26.9484 23.5908 27.4552 23.0991 27.4508C22.9308 27.4493 22.5506 27.3377 22.254 27.2029L22.2426 27.1977C22.1231 27.1434 22.0261 27.0993 21.9397 27.0398C21.5679 26.7835 21.393 26.2407 20.4654 23.362L20.4447 23.2977C20.4062 23.1783 20.369 23.0627 20.3329 22.9508C19.4906 20.3351 19.298 19.7369 18.9815 19.6617C18.8877 19.6394 18.783 19.6631 18.6472 19.6938C18.6276 19.6983 18.6074 19.7028 18.5865 19.7074C18.015 19.8333 17.9906 20.1986 18.4545 21.69C18.6756 22.4011 18.9303 23.2379 19.0205 23.5496C19.1106 23.8613 19.4202 24.853 19.7084 25.7534C20.4743 28.1457 20.4191 28.8658 19.4233 29.474C18.8769 29.8076 17.6627 29.8109 17.1211 29.4802C16.6788 29.2099 16.0474 27.8244 14.9925 24.8089C13.9898 21.9426 13.8814 21.7477 13.3462 21.849C13.2177 21.8733 13.0687 21.8974 13.0152 21.9027C12.9616 21.9081 12.8593 22.0664 12.7879 22.2548C12.6813 22.5357 12.7266 22.7791 13.0403 23.6086C13.6203 25.1424 15.0097 28.9663 15.1798 29.4971C15.3794 30.1196 15.1075 30.594 14.2988 31.035C13.511 31.4644 12.98 31.4494 12.2686 30.9774C11.628 30.5524 11.5968 30.4921 10.4119 27.3966C9.38535 24.7146 9.23109 24.4311 8.79786 24.4311C8.35683 24.4311 8.14662 24.6388 8.14662 25.0743C8.14662 25.4348 9.12561 28.2017 9.8646 29.9296C10.4222 31.2334 10.3934 31.4608 9.62233 31.8439C8.81131 32.2467 8.05786 32.1456 7.48244 31.5563C6.9661 31.0277 5.28433 27.9594 4.76762 26.6032C3.95785 24.478 3.81616 23.3924 4.24009 22.5601C4.55465 21.9425 4.66176 21.8614 5.76622 21.4053C6.9011 20.9364 7.12413 20.7339 7.65103 19.6941C7.87871 19.2449 8.24959 18.715 8.47538 18.5164C8.89831 18.1445 9.81481 17.8863 10.6625 17.9004C11.503 17.9144 11.8759 17.646 12.5249 16.5604C13.4993 14.9301 14.1748 14.6774 15.8909 15.3009C16.3675 15.474 17.0219 15.6157 17.345 15.6157C17.8744 15.6157 18.0005 15.5535 18.6184 14.9878C19.6419 14.0509 20.031 13.9407 20.846 14.3571ZM28.1443 24.5853C28.081 24.364 27.7116 23.7098 27.3234 23.1313C26.5925 22.0425 25.8874 21.1532 25.8784 21.3093C25.8756 21.3586 26.043 22.1591 26.2505 23.0885C26.7352 25.2603 26.7479 26.2807 26.3014 27.1782C25.6752 28.4371 24.4824 29.0866 22.7929 29.0893L21.9126 29.0907L21.4728 29.6837C21.2309 30.01 20.7078 30.5239 20.3101 30.8261C19.8182 31.1998 19.5874 31.463 19.5877 31.6498C19.5882 31.9931 20.0253 32.7258 20.2903 32.8276C20.5247 32.9178 21.5646 32.6983 22.7931 32.2995C23.2772 32.1423 24.4652 31.834 25.4333 31.6143C26.4013 31.3945 27.2611 31.1477 27.3441 31.0658C27.6372 30.7759 28.3241 25.213 28.1443 24.5853Z" fill="black"/>
</svg>
