<svg width="44" height="48" viewBox="0 0 44 48" fill="none" xmlns="http://www.w3.org/2000/svg">
<path fill-rule="evenodd" clip-rule="evenodd" d="M15.0878 1.11862C16.638 0.589537 18.8557 0.135051 20.3613 0.0377176C21.9457 -0.0648012 24.5082 0.0500832 25.7802 0.280518C27.8993 0.664398 30.7439 1.67522 32.3918 2.62994C36.4733 4.99452 39.6276 9.03065 40.6343 13.1765C40.8738 14.1634 40.9919 14.3372 41.4894 14.4362C42.3342 14.6044 43.2032 15.2364 43.6117 15.9796C43.9867 16.6616 44 16.7649 44 18.9881C44 21.0543 43.9682 21.3518 43.6901 21.8882C43.3364 22.5703 42.7287 23.0829 41.8579 23.4337L41.2561 23.6762L41.3819 24.3767C41.5934 25.5533 41.5924 29.7542 41.3805 31.0607C39.9607 39.8091 33.201 46.5449 24.5679 47.814C17.7696 48.8132 10.6946 45.7306 6.43442 39.913C4.29818 36.9957 3.10802 34.0265 2.62354 30.4056C2.44621 29.0792 2.52805 25.663 2.76963 24.3158C2.8817 23.6906 2.87979 23.6866 2.39765 23.5424C1.59239 23.3015 0.543337 22.342 0.234724 21.5643C3.72792e-05 20.9726 -0.0297399 20.5768 0.0211578 18.7221C0.078216 16.641 0.0949366 16.543 0.507545 15.8591C0.973985 15.0863 1.78556 14.5499 2.68955 14.4169C3.2041 14.3411 3.20557 14.3389 3.4979 13.1879C4.92347 7.57544 9.19184 3.1303 15.0878 1.11862ZM13.4907 28.3897C17.2617 29.5626 17.6629 29.712 17.7165 29.9644C17.7925 30.321 16.7427 31.2323 15.7409 31.6795C13.5481 32.6581 10.8914 31.9403 9.7655 30.0649C9.30595 29.2997 9.09796 28.021 9.36067 27.5762C9.5757 27.212 9.927 27.2811 13.4907 28.3897ZM34.5927 29.4825C34.9641 28.5826 34.9833 28.1916 34.6821 27.6634C34.559 27.4477 34.3445 27.2741 34.2053 27.2778C34.0663 27.2814 33.3254 27.4955 32.559 27.7533C31.7926 28.0112 30.2085 28.5209 29.0387 28.886C27.8689 29.251 26.7656 29.6355 26.5868 29.7402L26.2618 29.9306L26.5676 30.4004C26.9191 30.9404 27.8814 31.5823 28.7622 31.8639C29.0959 31.9707 29.8758 32.058 30.4951 32.058C31.408 32.058 31.7634 31.9938 32.3714 31.7192C33.3587 31.2732 34.2056 30.4204 34.5927 29.4825ZM5.16109 32.0438C5.59673 32.6076 7.76216 34.0859 8.86562 34.5728C10.6501 35.3604 11.5736 35.5657 13.2707 35.5523C15.6146 35.5337 17.5251 34.9186 19.5779 33.5215C21.4318 32.2599 22.174 32.1561 23.5522 32.9658C24.0286 33.2458 24.509 33.5749 24.6196 33.6971C24.7303 33.8194 24.8802 33.9196 24.9525 33.9196C25.025 33.9196 25.3553 34.0747 25.6865 34.2642C27.8808 35.52 30.9155 35.8777 33.5072 35.186C35.3002 34.7074 36.7033 33.9238 38.3188 32.4988C38.7841 32.0883 39.2004 31.7848 39.2438 31.8241C39.3479 31.9185 38.6738 34.2023 38.217 35.3024C36.2753 39.9788 32.1879 43.776 27.3007 45.4437C24.0779 46.5433 19.7593 46.5149 16.4976 45.3726C13.5815 44.3512 10.498 42.1971 8.50758 39.7908C7.75526 38.8814 6.29463 36.4137 5.74077 35.1163C5.50227 34.5574 4.69245 32.0208 4.6904 31.8253C4.68879 31.6929 5.00239 31.8383 5.16109 32.0438ZM20.775 36.0471C21.7059 36.5823 22.2916 36.5662 23.3115 35.9771C23.7514 35.723 24.1493 35.5152 24.1955 35.5152C24.4466 35.5152 24.9317 35.9666 24.9317 36.2002C24.9317 36.964 23.3068 37.948 22.0162 37.9658C20.82 37.9823 19.0672 36.9571 19.0653 36.2399C19.0634 35.5527 19.7753 35.4724 20.775 36.0471ZM23.7619 41.1658C24.5637 41.043 25.896 40.5615 26.6188 40.1332C27.3028 39.728 27.8079 39.6819 28.1837 39.9902C28.9579 40.6253 27.8304 41.5957 25.3717 42.4104C23.4759 43.0387 20.443 43.0142 18.5316 42.3551C18.1297 42.2166 17.6694 42.0578 17.3482 41.947L17.054 41.8456C16.0683 41.5056 15.6589 40.9013 16.0488 40.362C16.3689 39.9192 16.792 39.9473 17.9894 40.4907C18.5404 40.7409 19.3872 41.0177 19.8713 41.1061C20.8311 41.2814 22.8094 41.3117 23.7619 41.1658ZM21.118 21.8194V18.9606V16.1018H19.2845H17.4511V18.9606V21.8194H19.2845H21.118ZM15.5105 18.9864L15.4709 21.8712L13.753 21.8785L12.0352 21.8859L11.9928 18.9937L11.9506 16.1015L13.7503 16.1016L15.5499 16.1018L15.5105 18.9864ZM10.1171 21.8194V18.9606V16.1018H8.35694H6.59679V18.9606V21.8194H8.35694H10.1171ZM4.68996 19.0271V21.9524H3.94923C3.5419 21.9524 3.01503 21.8616 2.77829 21.7507C2.0377 21.4035 1.90305 20.9741 1.90305 18.9606C1.90305 16.4284 2.10958 16.1132 3.77321 16.1058L4.68996 16.1018V19.0271ZM26.5452 21.8194V18.9606V16.1018H24.7117H22.8782V18.9606V21.8194H24.7117H26.5452ZM31.9723 18.9989V21.8959L30.2182 21.891L28.464 21.8859L28.4213 18.9937L28.3787 16.1015L30.1755 16.1016L31.9723 16.1018V18.9989ZM37.3994 21.8194V18.9606V16.1018L35.6026 16.1016L33.8058 16.1015L33.8464 18.8607C33.8687 20.3783 33.9132 21.6879 33.9453 21.7709C33.9818 21.8654 34.2954 21.906 34.7847 21.8797C35.2144 21.8565 35.9786 21.8335 36.4827 21.8285L37.3994 21.8194ZM41.3678 16.2387C41.9565 16.5242 42.0932 17.0472 42.0932 19.0142C42.0932 20.0958 42.025 21.0119 41.9304 21.2002C41.7056 21.6472 41.2941 21.8047 40.223 21.8535L39.3063 21.8954V19.2089C39.3063 17.7313 39.2662 16.4278 39.2172 16.3121C39.1415 16.1333 39.2747 16.1018 40.107 16.1018C40.6453 16.1018 41.2127 16.1633 41.3678 16.2387ZM39.4529 23.681L35.5293 23.6622C20.0047 23.5878 4.79381 23.6299 4.75156 23.7475C4.54959 24.3105 4.615 24.4122 5.20334 24.4501C6.75418 24.5497 12.7648 25.0302 14.5908 25.2006C15.7202 25.3059 17.0734 25.4274 17.5977 25.4707C19.394 25.6191 24.1245 25.6566 25.5184 25.5336C29.2341 25.2059 33.473 24.8536 35.8593 24.6745C39.3553 24.4121 39.4529 24.3937 39.4529 23.9987V23.681Z" fill="black"/>
</svg>
